# xmcd
#
# Track frame offsets:
#  150
#  14822
#  26152
#  37811
#  49764
#  63974
#  77822
#  90220
#  107328
#  122291
#  136793
#  149749
#  164864
#  176120
#  191249
#  206114
#  221954
#  237348
#
# Disc length: 3362 seconds
#
# Revision: 0
# Processed by: cddbd v1.5.1PL2 Copyright (c) Steve Scherf et al.
# Submitted via: Collectorz.com_Music_Collector 6.11
#
DISCID=090d2012
DTITLE=George Jones - Compilation Album
DYEAR=1900
DGENRE=Country
TTITLE0=Asshole Song
TTITLE1=The Corvette Song
TTITLE2=A Picture Of Me (Without You)
TTITLE3=What My Woman Can't Do
TTITLE4=The Grand Tour
TTITLE5=These Days (I Barely Get By)
TTITLE6=The Door
TTITLE7=Bartender's Blues
TTITLE8=He Stopped Loving Her Today
TTITLE9=If Drinkin' Don't Kill Me (Her Memory Will)
TTITLE10=Still Doin' Time
TTITLE11=I Always Get Lucky With You
TTITLE12=She's My Rock
TTITLE13=Wine Colored Roses
TTITLE14=The Right Left Hand
TTITLE15=Radio Lover
TTITLE16=The King Is Gone (So Are You)
TTITLE17=Who's Gonna Fill Their Shoes
EXTD=
EXTT0=
EXTT1=
EXTT2=
EXTT3=
EXTT4=
EXTT5=
EXTT6=
EXTT7=
EXTT8=
EXTT9=
EXTT10=
EXTT11=
EXTT12=
EXTT13=
EXTT14=
EXTT15=
EXTT16=
EXTT17=
PLAYORDER=
